<svg class="diagram-root" style="background: #f5f6f6" xmlns="http://www.w3.org/2000/svg" xmlns:xlink="http://www.w3.org/1999/xlink"><style>.diagram-root { font-family: "Helvetica Neue", sans-serif; font-size: 12px; } .t { overflow: visible; } .t-bg { y: 40; fill: #fff;   } .th { fill: #005aa0;   } .tht { fill: #fff; font-size: 14px;  } .tf { fill: #323c46; overflow: visible; } .tf.pk { fill: #005aa0; font-weight: bold; } .tf.fk { font-weight: bold; } .ty { fill: #adb1b5; font-weight: normal; text-anchor: end; } .r { fill: transparent; stroke: #c3c3c3; stroke-width: 1; } .l { stroke: 1; } .i { fill: #c2c7ce; stroke: #c2c7ce; } .i.ix { fill: #afb3b6; stroke: #000; } .fa { fill: transparent; overflow: visible; } .fa .bg.hover { fill: #f7f7f7; } .c { cy: 12; r: 4; stroke: #d2d2dc; fill: #d2d2dc; } .hr { fill: transparent; stroke: #323c46; stroke-opacity: 0.035; stroke-width: 13; } .dc { stroke: #fa5a3c; fill: #fa5a3c; } .x { stroke: white; stroke-width: 1; } .hl .th { fill: #1b9bff; } .hl .tht {  } .fhl .bg { fill: #e7f4ff; } .fhls .bg {  } .r.hl { stroke: #1b9bff; } .dim { opacity: 0.25; }</style><g class="drawing-wrapper" transform="translate(35.44444444444444, 66) scale(1,1)"><g class="rs"><path d="M 153.73 75.33 m -1, 0 a 1,1 0 1,0 2,0 a 1,1 0 1,0 -2,0 M 153.73 75.33 m -0.5, 0 a 0.5,0.5 0 1,0 1,0 a 0.5,0.5 0 1,0 -1,0  M153.73 75.33 L153.73 75.33 165.73 75.33 M 153.73 81.33 m -1, 0 a 1,1 0 1,0 2,0 a 1,1 0 1,0 -2,0 M 153.73 81.33 m -0.5, 0 a 0.5,0.5 0 1,0 1,0 a 0.5,0.5 0 1,0 -1,0  M153.73 81.33 L153.73 81.33 160.73 75.33 153.73 69.33 M 153.73 69.33 m -1, 0 a 1,1 0 1,0 2,0 a 1,1 0 1,0 -2,0 M 153.73 69.33 m -0.5, 0 a 0.5,0.5 0 1,0 1,0 a 0.5,0.5 0 1,0 -1,0  M165.73 75.33 Q 188.3 75.33, 210.87 121.17 T 256 167 M 268 167 m -1, 0 a 1,1 0 1,0 2,0 a 1,1 0 1,0 -2,0 M 268 167 m -0.5, 0 a 0.5,0.5 0 1,0 1,0 a 0.5,0.5 0 1,0 -1,0  M268 167 L268 167 256 167 M262 173 L262 173 262 161" id="h209158761" class="r"></path><path d="M 418.05 21 m -1, 0 a 1,1 0 1,0 2,0 a 1,1 0 1,0 -2,0 M 418.05 21 m -0.5, 0 a 0.5,0.5 0 1,0 1,0 a 0.5,0.5 0 1,0 -1,0  M418.05 21 L418.05 21 430.05 21 M 418.05 27 m -1, 0 a 1,1 0 1,0 2,0 a 1,1 0 1,0 -2,0 M 418.05 27 m -0.5, 0 a 0.5,0.5 0 1,0 1,0 a 0.5,0.5 0 1,0 -1,0  M418.05 27 L418.05 27 425.05 21 418.05 15 M 418.05 15 m -1, 0 a 1,1 0 1,0 2,0 a 1,1 0 1,0 -2,0 M 418.05 15 m -0.5, 0 a 0.5,0.5 0 1,0 1,0 a 0.5,0.5 0 1,0 -1,0  M430.05 21 Q 447.54 21, 465.03 22 T 500 23 M 512 23 m -1, 0 a 1,1 0 1,0 2,0 a 1,1 0 1,0 -2,0 M 512 23 m -0.5, 0 a 0.5,0.5 0 1,0 1,0 a 0.5,0.5 0 1,0 -1,0  M512 23 L512 23 500 23 M506 29 L506 29 506 17" id="h1139284389" class="r"></path><path d="M 266 46 m -1, 0 a 1,1 0 1,0 2,0 a 1,1 0 1,0 -2,0 M 266 46 m -0.5, 0 a 0.5,0.5 0 1,0 1,0 a 0.5,0.5 0 1,0 -1,0  M266 46 L266 46 254 46 M 266 52 m -1, 0 a 1,1 0 1,0 2,0 a 1,1 0 1,0 -2,0 M 266 52 m -0.5, 0 a 0.5,0.5 0 1,0 1,0 a 0.5,0.5 0 1,0 -1,0  M266 52 L266 52 259 46 266 40 M 266 40 m -1, 0 a 1,1 0 1,0 2,0 a 1,1 0 1,0 -2,0 M 266 40 m -0.5, 0 a 0.5,0.5 0 1,0 1,0 a 0.5,0.5 0 1,0 -1,0  M254 46 Q 231.94 46, 209.87 60.67 T 165.73 75.33 M 153.73 75.33 m -1, 0 a 1,1 0 1,0 2,0 a 1,1 0 1,0 -2,0 M 153.73 75.33 m -0.5, 0 a 0.5,0.5 0 1,0 1,0 a 0.5,0.5 0 1,0 -1,0  M153.73 75.33 L153.73 75.33 165.73 75.33 M159.73 81.33 L159.73 81.33 159.73 69.33" id="h4223752257" class="r"></path><path d="M 420.05 192 m -1, 0 a 1,1 0 1,0 2,0 a 1,1 0 1,0 -2,0 M 420.05 192 m -0.5, 0 a 0.5,0.5 0 1,0 1,0 a 0.5,0.5 0 1,0 -1,0  M420.05 192 L420.05 192 432.05 192 M 420.05 198 m -1, 0 a 1,1 0 1,0 2,0 a 1,1 0 1,0 -2,0 M 420.05 198 m -0.5, 0 a 0.5,0.5 0 1,0 1,0 a 0.5,0.5 0 1,0 -1,0  M420.05 198 L420.05 198 427.05 192 420.05 186 M 420.05 186 m -1, 0 a 1,1 0 1,0 2,0 a 1,1 0 1,0 -2,0 M 420.05 186 m -0.5, 0 a 0.5,0.5 0 1,0 1,0 a 0.5,0.5 0 1,0 -1,0  M432.05 192 Q 449.04 192, 466.03 107.5 T 500 23 M 512 23 m -1, 0 a 1,1 0 1,0 2,0 a 1,1 0 1,0 -2,0 M 512 23 m -0.5, 0 a 0.5,0.5 0 1,0 1,0 a 0.5,0.5 0 1,0 -1,0  M512 23 L512 23 500 23 M506 29 L506 29 506 17" id="h2286254435" class="r"></path><path d="M 769 24 m -1, 0 a 1,1 0 1,0 2,0 a 1,1 0 1,0 -2,0 M 769 24 m -0.5, 0 a 0.5,0.5 0 1,0 1,0 a 0.5,0.5 0 1,0 -1,0  M769 24 L769 24 757 24 M 769 30 m -1, 0 a 1,1 0 1,0 2,0 a 1,1 0 1,0 -2,0 M 769 30 m -0.5, 0 a 0.5,0.5 0 1,0 1,0 a 0.5,0.5 0 1,0 -1,0  M769 30 L769 30 762 24 769 18 M 769 18 m -1, 0 a 1,1 0 1,0 2,0 a 1,1 0 1,0 -2,0 M 769 18 m -0.5, 0 a 0.5,0.5 0 1,0 1,0 a 0.5,0.5 0 1,0 -1,0  M757 24 Q 740.88 24, 724.75 23.5 T 692.5 23 M 680.5 23 m -1, 0 a 1,1 0 1,0 2,0 a 1,1 0 1,0 -2,0 M 680.5 23 m -0.5, 0 a 0.5,0.5 0 1,0 1,0 a 0.5,0.5 0 1,0 -1,0  M680.5 23 L680.5 23 692.5 23 M686.5 29 L686.5 29 686.5 17" id="h3177548053" class="r"></path></g><g class="hrs"></g><g class="ts"><svg width="167.17" height="100" x="-13.44" y="18.33" id="h4180888202" class="t"><rect height="40" width="167.17" class="th"></rect><text x="13" y="25" class="tht">department</text><rect height="60" width="167.17" class="t-bg"></rect><text x="13" y="61" class="tf pk">dept_no<tspan x="154.17" class="ty">VARCHAR</tspan></text><path d="M7,14A2,2 0 0,1 5,12A2,2 0 0,1 7,10A2,2 0 0,1 9,12A2,2 0 0,1 7,14M12.65,10C11.83,7.67 9.61,6 7, 6A6, 6 0 0, 0 1, 12A6, 6 0 0, 0 7, 18C9.61, 18 11.83, 16.33 12.65, 14H17V18H21V14H23V10H12.65Z" class="i pk" transform="translate(76.37898437499999, 48) scale(0.65)"></path><text x="13" y="86" class="tf">dept_name<tspan x="154.17" class="ty">VARCHAR</tspan></text></svg><svg width="152.05" height="100" x="266" y="-36" id="h1090417462" class="t"><rect height="40" width="152.05" class="th"></rect><text x="13" y="25" class="tht">dept_emp</text><rect height="60" width="152.05" class="t-bg"></rect><text x="13" y="61" class="tf pk">emp_no<tspan x="139.05" class="ty">SERIAL</tspan></text><path d="M7,14A2,2 0 0,1 5,12A2,2 0 0,1 7,10A2,2 0 0,1 9,12A2,2 0 0,1 7,14M12.65,10C11.83,7.67 9.61,6 7, 6A6, 6 0 0, 0 1, 12A6, 6 0 0, 0 7, 18C9.61, 18 11.83, 16.33 12.65, 14H17V18H21V14H23V10H12.65Z" class="i pk" transform="translate(76.36445312500001, 48) scale(0.65)"></path><text x="13" y="86" class="tf fk">dept_no<tspan x="139.05" class="ty">VARCHAR</tspan></text></svg><svg width="152.05" height="100" x="268" y="110" id="h1676682957" class="t"><rect height="40" width="152.05" class="th"></rect><text x="13" y="25" class="tht">dept_manager</text><rect height="60" width="152.05" class="t-bg"></rect><text x="13" y="61" class="tf fk">dept_no<tspan x="139.05" class="ty">VARCHAR</tspan></text><text x="13" y="86" class="tf pk">emp_no<tspan x="139.05" class="ty">SERIAL</tspan></text><path d="M7,14A2,2 0 0,1 5,12A2,2 0 0,1 7,10A2,2 0 0,1 9,12A2,2 0 0,1 7,14M12.65,10C11.83,7.67 9.61,6 7, 6A6, 6 0 0, 0 1, 12A6, 6 0 0, 0 7, 18C9.61, 18 11.83, 16.33 12.65, 14H17V18H21V14H23V10H12.65Z" class="i pk" transform="translate(76.36445312500001, 73) scale(0.65)"></path></svg><svg width="168.5" height="225" x="512" y="-34" id="h1639608377" class="t"><rect height="40" width="168.5" class="th"></rect><text x="13" y="25" class="tht">employees</text><rect height="185" width="168.5" class="t-bg"></rect><text x="13" y="61" class="tf pk">emp_no<tspan x="155.5" class="ty">SERIAL</tspan></text><path d="M7,14A2,2 0 0,1 5,12A2,2 0 0,1 7,10A2,2 0 0,1 9,12A2,2 0 0,1 7,14M12.65,10C11.83,7.67 9.61,6 7, 6A6, 6 0 0, 0 1, 12A6, 6 0 0, 0 7, 18C9.61, 18 11.83, 16.33 12.65, 14H17V18H21V14H23V10H12.65Z" class="i pk" transform="translate(92.814453125, 48) scale(0.65)"></path><text x="13" y="86" class="tf">emp_title_id<tspan x="155.5" class="ty">VARCHAR</tspan></text><text x="13" y="111" class="tf">birth_date<tspan x="155.5" class="ty">DATE</tspan></text><text x="13" y="136" class="tf">first_name<tspan x="155.5" class="ty">VARCHAR</tspan></text><text x="13" y="161" class="tf">last_name<tspan x="155.5" class="ty">VARCHAR</tspan></text><text x="13" y="186" class="tf">sex<tspan x="155.5" class="ty">VARCHAR</tspan></text><text x="13" y="211" class="tf">hire_date<tspan x="155.5" class="ty">DATE</tspan></text></svg><svg width="152.05" height="100" x="769" y="-33" id="h2472833127" class="t"><rect height="40" width="152.05" class="th"></rect><text x="13" y="25" class="tht">salaries</text><rect height="60" width="152.05" class="t-bg"></rect><text x="13" y="61" class="tf pk">emp_no<tspan x="139.05" class="ty">SERIAL</tspan></text><path d="M7,14A2,2 0 0,1 5,12A2,2 0 0,1 7,10A2,2 0 0,1 9,12A2,2 0 0,1 7,14M12.65,10C11.83,7.67 9.61,6 7, 6A6, 6 0 0, 0 1, 12A6, 6 0 0, 0 7, 18C9.61, 18 11.83, 16.33 12.65, 14H17V18H21V14H23V10H12.65Z" class="i pk" transform="translate(76.36445312500001, 48) scale(0.65)"></path><text x="13" y="86" class="tf">salary<tspan x="139.05" class="ty">INT</tspan></text></svg><svg width="158.48" height="100" x="-13" y="290.89" id="h311790747" class="t"><rect height="40" width="158.48" class="th"></rect><text x="13" y="25" class="tht">titles</text><rect height="60" width="158.48" class="t-bg"></rect><text x="13" y="61" class="tf pk">title_id<tspan x="145.48" class="ty">VARCHAR</tspan></text><path d="M7,14A2,2 0 0,1 5,12A2,2 0 0,1 7,10A2,2 0 0,1 9,12A2,2 0 0,1 7,14M12.65,10C11.83,7.67 9.61,6 7, 6A6, 6 0 0, 0 1, 12A6, 6 0 0, 0 7, 18C9.61, 18 11.83, 16.33 12.65, 14H17V18H21V14H23V10H12.65Z" class="i pk" transform="translate(67.68898437499999, 48) scale(0.65)"></path><text x="13" y="86" class="tf">title<tspan x="145.48" class="ty">VARCHAR</tspan></text></svg></g></g><text class="qdbd-link" x="10" y="20">www.quickdatabasediagrams.com</text></svg>